<svg width="20" height="20" xmlns="http://www.w3.org/2000/svg" xmlns:xlink="http://www.w3.org/1999/xlink"><defs><path id="a" d="M19.962 19.78V.024H0V19.78h19.962z"/><path id="c" d="M.003 9.97H9.88V.048H.004z"/></defs><g fill="none" fill-rule="evenodd"><g transform="translate(0 .034)"><mask id="b" fill="#fff"><use xlink:href="#a"/></mask><path d="M10.428 18.844a2.194 2.194 0 0 0-.264 0l.258-.043.006.05zM4.878 2.17l-.1.088c.01-.03.02-.06.033-.087a.386.386 0 0 0 .07 0zm15.057 7.443c-.017-.026-.052-.08-.07-.105.01-.045.025-.135.033-.18-.102-.19-.01-.378.04-.565-.023-.18-.027-.38-.17-.503.012-.105.077-.237-.032-.31-.202-.126.06-.337-.032-.503-.132-.072-.052-.22-.05-.338-.05-.07-.112-.12-.168-.18l.003-.175c-.05-.073-.05-.2-.14-.224v-.12l-.05.01c-.12-.12-.15-.29-.24-.426.085-.354-.29-.57-.357-.894-.15-.203-.257-.54-.52-.596-.177-.36-.46-.67-.564-1.066-.056-.076-.08-.19-.168-.23-.026-.112-.146-.177-.23-.233-.064-.123-.247-.222-.366-.3-.283-.36-.683-.635-1.03-.932a.36.36 0 0 0-.27-.187c.015-.104-.118-.214-.208-.14-.028-.097-.16-.175-.25-.19-.03-.152-.25-.124-.366-.172-.115-.21-.43-.206-.616-.35h-.07l.02-.054c-.247-.034-.443-.208-.68-.217-.018-.13-.225-.137-.33-.145.013-.134-.196-.034-.273-.07-.27.118-.44-.18-.69-.133-.076-.017-.212-.012-.28.04l-.168-.05-.13-.052-.235.106-.15-.03-.074-.05h-.57l-.338.106-.337-.08L9.42.05l-.234.03h-.39L8.45.11c-.412-.115-.85.195-1.276.117l.004.062a1.387 1.387 0 0 0-.42.21c-.37.01-.715.19-1.025.39a.953.953 0 0 0-.673.31c-.204.112-.45.22-.61.36-.224.07-.473.234-.577.44a.23.23 0 0 0-.2.104c-.14-.05-.233.083-.3.19-.194.123-.268.365-.467.483-.215.345-.633.555-.743.963l-.04.028c-.224.02-.287.33-.44.46-.312.474-.66.94-.874 1.47-.14.24-.3.5-.32.783-.11.08-.08.226-.08.344-.14.123.07.31-.11.424.05.25-.11.48-.096.73L.14 8l-.003.76c-.163.184-.113.556-.126.813a4.36 4.36 0 0 0-.01.44l.03.182c-.05.313-.02.634-.004.95-.033.187.116.35.07.535-.025.298.137.562.235.827-.06.113.013.194.097.263.015.32.055.692.286.932.054.21.097.442.255.6.15.304.324.6.484.9l.114.018c.024.072-.066.303.055.265.04.108.14.18.23.242.007.282.2.604.436.77.545.534 1 1.2 1.67 1.594l-.03.04c.213-.024.383.097.513.26.443.27.904.49 1.396.645.09.095.44.335.536.158l.078.007c-.02.1.224.052.313.096.078.1.218.126.33.07a3.6 3.6 0 0 1 .492.094v.073c.32-.092.625.06.945.07.13.15.37.043.55.06.09.008.18.01.27.008a1.99 1.99 0 0 0-.08-.074c-.03-.23.286-.04.357.064-.05.006-.157.013-.21.017v.064c.226.01.453 0 .682 0-.113-.1-.43-.3.175-.125l.032.13c.245-.046.69.127.828-.09.082.05.17.096.258.136.157-.027.308-.147.467-.06.156.096.24-.163.39-.07v.08c.237 0 .428-.23.668-.15.084-.15.226-.244.36-.35.117.047.18.034.192-.04.67-.19 1.195-.72 1.87-.87.135-.305.48-.386.73-.572.32-.203.59-.474.87-.725.46-.322.72-.873 1.13-1.253.16-.35.46-.62.566-.99.08.043.074-.115.08-.165.254-.13.203-.544.425-.73.184-.12-.1-.33.085-.47.196-.48.476-.975.443-1.51.11-.27.17-.56.166-.85h.06c-.02-.35.07-.69.074-1.04-.003-.133.017-.274-.025-.403z" fill="#F23675" mask="url(#b)"/></g><path d="M7.28 4.278c.25 0 .51.21.752.21.387 0 .543.135.69.23.366.22.815.334 1.202.585.094.063.376.575.376.67.042.135-.062.344-.062.532.104.366-.753.627-.952.627-.083 0-.27-.115-.376-.22-.063-.062-.188-.376-.21-.47-.156-.198-.23-.46-.375-.69-.095-.125-.23-.282-.314-.407-.06-.063-.15-.063-.18-.23 0-.02-.17-.147-.17-.19a.23.23 0 0 0-.08-.145c-.105-.104-.42-.355-.42-.44 0-.062.06-.062.126-.062M4.416 8.7c.22 0 .42.042.605.042.09 0 .38.053.38-.292.088-.314.067-.66.088-.973 0-.03.045-.22.045-.25 0-.346.02-.753.02-1.192 0-.805-.02-1.067-.02-3.032-.105-.335-.105-.69-.19-1.025-.062-.25-.5-.355-.5-.564 0-.01 0-.167.083-.167.04-.02.42-.19.44-.21.167-.104.23-.167.418-.167.273 0 .503.23.71.356.17.083.44.146.44.376 0 .063 0 .188-.02.21l-.42.417a.774.774 0 0 0-.072.35c0 .57.076 1.67.076 2.03v.04c0 .02-.02.25-.02.27.02.51.06.88.06 2.33 0 .167 0 .606.063.67 0 .386-.042.752-.042 1.15-.06.197-.154.24-.31.375 0 .074-.22.47-.336.545-.104.02-.366.126-.48.126-.25 0-.28-.25-.397-.44a3.93 3.93 0 0 0-.7-.853c-.01-.073.052-.126.094-.126m-1.2-3.143V5.5h-.1c0 .055.065.055.1.055m-1.335.92c.178-.106.303-.43.387-.63.22-.48.648-1.504.753-1.504.22.21.345.61.345.9 0-.04-.01.58-.094.86-.22.36-.262.95-.69 1.13-.19.13-.45.38-.7.38-.2 0-.273-.25-.273-.44-.04-.144.335-.69.272-.69" fill="#FFF"/><path d="M15.495 10.985c.188 0 .627.02.627-.126.01-.1-.042-.42-.063-.57-.05-.098-.13-.13-.13-.22 0-.067.12 0 .12-.098 0-.125-.04-.376-.19-.418-.093.05-.177-.064-.29-.064h-.27c-.02.02-.285.136-.274.167v.25l.042.02-.043.104c-.02.22.106.358.106.536 0 .052-.01.115-.01.19a.4.4 0 0 0 .03.155c.043 0 .273.065.336.065m-.54-7.01c.082 0 .145-.034.145-.1-.062 0-.146 0-.19.033 0 .066.023.032.044.066m.88 5.19c.164.124.122-.18.122-.48 0-.358.083-1.048-.377-1.048l-.125.04c-.165-.115-.2-.104-.29-.104-.085 0-.336.04-.336.168 0 .19.145.46.145.544v.588c.02.053.063.19.126.25.25 0 .68.044.73.044m-.792-1.86a.136.136 0 0 0 .125-.043c.04 0 .167.043.21.043.124-.01.5.06.5-.23v-.94c-.04-.066 0-.254-.104-.275-.136 0-.27-.105-.398-.105-.053 0-.22.04-.293.04-.314 0-.115-.25-.356-.25-.063 0-.063.084-.063.147 0 .063.043.125.043.19 0 .113-.137.176-.126.312 0 .03.144.28.144.5.023 0-.02.18-.02.25 0 .02.01.24.127.315.084.04.126.04.21.04m-.655-.993s-.035 0-.035.017c0 .052.035.052.035.052.018 0 .036 0 .036-.054 0-.02-.015-.02-.03-.02m.09 4.266c-.01-.05-.065-.146-.065-.22V9.6c-.074-.148-.095-.346-.095-.534 0-.126.01-.22.01-.325-.04-.06-.06-.08-.06-.14 0-.71.022-.73.022-.9 0-.163-.03-.69-.19-.69-.06.11-.28.19-.27.19l.063.065c0 .115-.293.157-.314.23v.05c0 .02 0 .034-.04.034-.03 0-.03-.01-.063-.02 0-.117.124-.243.187-.295h.042c-.01-.285.145-.568.25-.88.062-.21.146-.336.21-.566.04-.147.06-.273.124-.44.04-.063.168-.564.19-.627 0-.03.062-.095.062-.127v-.65a.95.95 0 0 1-.085-.408c0-.03 0-.094.02-.094.21 0 .524-.03.566-.062.293.054.28.064.46.22.01.116.02.126.125.22 0 .147-.145.408-.166.5l.04.065c-.04.12-.167.09-.188.183l.02.063c.044.27-.123.178-.165.28-.01.044.02.128-.06.22 0 .064.04.158.1.19.314.073.606.157.94.157 0-.03-.02-.19-.02-.22.126-.156.094-.25.188-.375a.58.58 0 0 0 .126-.345c-.052-.072.126-.156.126-.282 0-.134.02-.47.063-.563.01-.117-.063-.2-.063-.316 0-.07-.02-.09.024-.123h.23c.01.02.03.062.064.093.042-.042.073.063.188.063.074.115.586.21.586.47.042.188-.23.26-.25.408a.424.424 0 0 1-.126-.03c-.052.074 0 .22-.063.22 0 .03-.145.03-.145.125.084.096-.303.096-.303.23 0 .02.01.043.01.054-.02.125-.082.19-.082.313 0 .272.29.22.397.22.125-.094.355-.084.502-.126.06-.062.385-.282.45-.345.03 0 .09-.065.09-.065.105 0 .628.253.628.535 0 .106-.063.065-.126.106-.03.02-.122.19-.25.19l-.03.02c-.375 0-.344.02-.44-.02-.145.05-.333 0-.45.06-.165.02-.31-.04-.46-.04-.165 0-.29 0-.353.124 0 .144-.062.23-.062.353 0 .073.052.135.042.21 0 .04-.044.25-.044.29-.01.304.115.587.48.587.377 0 .503-.46.754-.46.093 0 .156.062.22.125.103.106.312.116.312.273a.71.71 0 0 1-.126.25c-.094.18-.49.082-.575.166-.124.014-.134-.06-.25-.06-.02-.04-.125.064-.522.064-.032 0-.052-.01-.084-.01-.04 0-.08.136-.08.2v.92c.02.02.04.103.104.145-.052.166.25.187.397.187.075-.04.18-.01.294-.083.157-.24.47-.42.47-.42.063 0 .22.167.283.19.158.165.084.21.158.29 0 .09-.052.22-.125.27-.27.187-.595.114-.91.187-.24 0-.44.01-.605-.02l-.02.02-.04.294a.34.34 0 0 1 .06.158c0 .2-.06.326-.06.514 0 .157.04.335.25.398h.73c.15-.03.45-.282.6-.47.042-.063.45.26.533.345l.062.095c.156 0 .156.126.156.19 0 .29-.44.218-.72.218-.03 0-.126.033-.157.033-.26.03-.377-.032-.513-.032-.314 0-.795.064-.837.127a1.146 1.146 0 0 0-.44-.094c-.084 0-.157.01-.23.01-.136 0-.23-.074-.314-.074-.088 0-.18.074-.266.074-.052 0-.115-.01-.18-.01-.103 0-.19.01-.23.06-.02.126-.06.816-.46.816-.19 0-.25-.187-.25-.344 0-.335-.04-.847-.04-.878v-.033c.06-.143.02-.28.06-.373m-1.976.88c0-.064 0-.095-.03-.158.05-.178.062-.356.062-.544 0-.263-.043-.817-.043-.984 0-.04.01-.093.01-.145 0-.02-.03-.27-.03-.312-.02-.07.03-.26.03-.395 0-.125-.125-.376-.28-.376-.188 0-.157.25-.25.376-.23.283-.46.576-.785.774l-.563.513c-.158.064-.158.127-.284.25-.348.23-.598.44-.91.755-.03.032-.26.115-.295.126-.197-.01-.03.098-.27.098v-.063a9.753 9.753 0 0 1 1.13-.97c.27-.313.7-.71.815-.89a1.91 1.91 0 0 0 .47-.52c-.06-.19.25-.284.25-.378 0-.24.22-.343.22-.48-.01-.114.25-.386.22-.48-.033-.22-.085-.25-.19-.25-.136 0-.293.064-.44.064 0 0-.06 0-.06-.02l-.06.06c-.044 0-.086-.01-.128-.01-.2 0-.283.073-.503.073-.07 0-.187.01-.187-.17-.01-.073.095-.313.095-.44.03-.187.03-.31.03-.5 0-.084.06-.21.06-.314.033-.01-.03-.043-.06-.085 0-.294-.22-.26-.22-.608 0-.26.45-.345.5-.345.315 0 .346.157.47.41.19.092.22.113.22.25 0 .19-.125.124-.22.19.022.06-.03.08-.07.08-.03 0-.065-.02-.085-.02-.042 0-.063.02-.063.06 0 .128.063.23.063.378 0 .105-.032.19-.032.293 0 .19.13.25.285.316.407 0 .972.01.972-.357 0-.25-.02-.71-.19-.754h-.35c-.092 0-.154-.13-.154-.21 0-.128.344-.19.563-.19l.095-.106c-.01-.76.083-.845-.816-.845-.093 0-.156-.098-.25-.13-.04.063-.26.22-.28.22-.034 0-.128-.063-.16-.063-.157 0-.293.03-.44.03-.03 0-.125.063-.156.063-.086-.03-.284-.01-.284-.093l.064-.063c0-.063-.01-.032-.04-.063a.71.71 0 0 1-.126.127c-.083 0-.146-.156-.146-.25 0-.095.084-.126.19-.126.187 0 .375.03.595.03.31 0 .593 0 .94-.03.03 0 .22-.03.25-.03.093-.032.396.03.595.03.01.02.072-.01.124-.03.427.115.594-.596.845-.596.147.103.628.333.628.542 0 .105-.084.25-.25.366l-.064.03c-.084 0-.084-.062-.21-.062a.194.194 0 0 0-.188.19c0 .166.04.166.084.22-.033.02-.02.135-.02.22 0 .103-.23.145-.17.186.06.47.06.314.06 1.38 0 .042.044.105.044.126 0 .04-.042.124-.042.166v1.3c.043.126.043.262.043.398V9c0 .02.02.126.02.147.02.2-.02.554-.02.815 0 .385.063.73.063.92-.02.22-.063.385-.105.594-.03.342-.072.69-.47.69-.093 0-.156-.128-.156-.22 0-.16.03-.316.03-.47" fill="#FFF"/><g transform="translate(3.186 9.946)"><mask id="d" fill="#fff"><use xlink:href="#c"/></mask><path d="M9.564 3.566s-.017.017-.017.052c0 .017.017.034.017.034a.037.037 0 0 0 .034-.034c0-.035-.017-.052-.034-.052zm-.23 5.538h.05v-.05l-.05.05zM9.09 6.76c0 .033.018.05.052.05.017 0 .034-.017.034-.05s-.017-.05-.034-.05c-.034 0-.052.017-.052.05zm-.06.06c0 .034.017.05.05.05.018 0 .036-.016.036-.05 0-.032-.018-.05-.035-.05-.03 0-.05.018-.05.05zM8.3 2.954c0 .017 0 .034.05.034.018 0 .018-.017.018-.034 0-.05 0-.066-.017-.066-.05 0-.05.016-.05.066zm.058 1.182v-.052h-.07l.07.052zm-.25 1.204h.1v-.1c-.035 0-.1.05-.1.1zm.016-.668s-.017 0-.017.034.017.034.017.034c.017 0 .05 0 .05-.034s-.033-.034-.05-.034zm-1.316.315h.035v-.052h-.035v.052zm-.365-.72c.284-.02.163.06.325.12.1-.05.243.183.243.335-.07.305-.2.305-.42.396-.05.03-.16.06-.14.06-.11 0-.12-.14-.12-.243v-.12c0-.093.06-.55.12-.55zm-.04-.55c.04-.03.07-.05.1-.04.062 0 .275.04.305.04l.122-.04c.152 0 .162.04.517.04.213 0 .213-.05.355-.222.01-.112-.02-.172-.02-.264 0-.11.01-.14.06-.22 0-.02-.04-.06-.06-.06v-.26c-.1 0-.223.02-.243.12l-.05-.04c-.14.127-.305.187-.447.31-.09.16-.233.12-.365.222-.06.02-.12.12-.183.14-.09.08-.305.114-.244.246.02 0 .12.04.143.04zm-1.44 2.296v.057c.05-.043.068-.015.068-.1l-.06.043zm-.02.908l.034-.06h-.035v.07zm2.484-1.21c0-.03.01-.07.05-.07l-.06-.06V5.3s.06-.06.08-.09c.123-.01.01-.315.103-.336.01-.172-.04-.172-.04-.243 0-.14.1-.26.1-.39 0-.18-.182-.21-.304-.21-.223 0-.406.06-.608.06-.04-.03-.06-.03-.102-.03-.06 0-.122.01-.182.03l-.06-.03c-.01-.01-.204.03-.346.03-.04.01-.08-.03-.122-.03-.213.07-.405.07-.69.07-.192 0-.405-.03-.405-.262 0-.12.07-.14.19-.202.398 0 .82.04.915-.12.04.07.05-.203.467-.365.314-.172.375-.405.65-.547.02-.04.12-.06.14-.1.04-.06.07-.1.123-.14.02.01.26-.264.342-.305.02-.04.123-.202.143-.222 0-.1.345-.313.345-.425 0-.12-.242-.16-.344-.16-.263 0-.507.04-.79.04-.04.1-.02.172-.02.263.14.04.364.304.364.406.03.17-.336.364-.467.364-.11 0-.202-.264-.202-.406 0-.02.03-.487-.18-.487-.16 0-.465.246-.465.368 0 .273.424.425.424.71 0 .1 0 .223-.06.283a1.23 1.23 0 0 1-.205.14c-.02-.04-.224.1-.224-.12 0-.345-.1-.376-.1-.6v-.07c-.02-.02-.08-.02-.143-.02-.02-.06-.183.08-.285.08-.275.234-.387.366-.448.366-.04 0-.1-.02-.1-.02-.02-.212.214-.293.305-.425 0-.11.286-.346.367-.53.206-.12.125-.242.287-.404 0-.153.193 0 .203-.326.183-.12.08-.316.16-.427L6.16.35c-.04-.14.01-.303.182-.303.1 0 .162.06.243.06.112 0 .112 0 .163-.02.02 0 .02.02.02.06.01.01-.01.062-.02.082 0 .04.06.12.06.12.03-.08.122.12.183.22a.99.99 0 0 0-.04.18l.04.02c-.03.04-.04.05-.04.1l.06.06S7 .96 7 .98s.01.04.052.04h.426C7.66.9 7.924 1 8.086.878c.203 0 .406.112.67-.284.01-.03.132-.07.152-.08.193 0 .193.354.274.364 0 .193.182.224.182.426 0 .244-.243.244-.395.366-.18.142-.21.284-.44.243-.08.142-.21.08-.21.304.04.08-.092.173-.06.183.06 0 .06-.02.12-.02.08 0 .335.202.335.304 0 .06-.274.466-.274.67.013.06-.05.324.124.324h.487l.123-.08c.06-.062.12-.306.242-.306.152.102.456.264.456.507 0 .25-.24.25-.425.25-.092 0-.203.01-.244-.03-.05 0-.06.01-.09.03-.1-.03-.14-.03-.273-.03-.123 0-.457 0-.457.18v.79l-.04.06v.394c-.04.547-.424.304-.606.547-.13.03-.304-.06-.304-.243 0 0-.01-.02-.01-.05zm-2.667.85c0 .02.017.037.034.037.035 0 .052-.017.052-.033 0-.05-.017-.067-.052-.067-.017 0-.034.016-.034.066zm-.183 1.91c0 .037.017.05.035.05.034 0 .05-.013.05-.05s-.016-.05-.05-.05c-.018 0-.035.02-.035.05zm-.142-.35c0 .02 0 .02.035.02.017 0 .017 0 .017-.015 0 0 0-.035-.017-.035-.035 0-.035.034-.035.034zm-.223-2.6c0 .02.017.038.034.038.035 0 .052-.017.052-.034 0-.05-.017-.07-.052-.07-.017 0-.034.016-.034.066zm-.1 1.047h.1V6.53c-.035 0-.1 0-.1.033zm0-4.62h.067l-.07-.07v.07zm-.103 2.74c0 .016 0 .05.03.05.012 0 .012-.034.012-.05 0-.034 0-.05-.017-.05-.035 0-.035.016-.035.05zm-.04-.32c0 .018.01.034.03.034.03 0 .05-.016.05-.033 0-.05-.02-.067-.05-.067-.02 0-.04.015-.04.065zm-.03 2.58c0 .034 0 .05.034.05.017 0 .017-.016.017-.05 0-.033 0-.05-.017-.05-.036 0-.036.017-.036.05zm.02-1.725s-.036 0-.036.033.035.034.035.034c.02 0 .04 0 .04-.035s-.018-.035-.035-.035zm-.056-3.404c0 .017.017.034.034.034.035 0 .052-.02.052-.04 0-.032-.017-.065-.052-.065-.01 0-.03.034-.03.067zm-.08 6.77c0 .032 0 .05.033.05.012 0 .012-.018.012-.05 0-.035 0-.05-.018-.05-.033 0-.033.015-.033.05zM3.6 6.804c0-.017.018-.017.018-.034l-.02.03zm-.04-.034c0 .01.025.02.038.02h.01v.01c0 .02 0 .03.022.03s.025-.01.025-.03c0-.02 0-.03-.025-.03h-.01c0-.03-.012-.04-.024-.04a.04.04 0 0 0-.038.04zm-.67 0c.05 0 .1 0 .1-.04-.05-.08-.114-.066-.097-.066v.1zm-.243.03h.05v-.07l-.05.07zm.64-3.88c-.357 0-.55.01-.55.265-.06.224-.12.224-.12.366h.455c.08 0 .568-.01.73-.14 0-.16 0-.343.04-.485l-.04-.04h-.12c-.265 0-.265.04-.397.04zM2.222 2.1c0 .018.035.035.052.035A.037.037 0 0 0 2.31 2.1c0-.05-.018-.064-.035-.064s-.052.016-.052.066zm-.01-.785c-.017 0-.05 0-.05.017 0 .05.033.05.05.05.033 0 .05 0 .05-.05 0-.017-.017-.017-.05-.017zm-.11.294c.032 0 .065-.05.1-.07l-.035-.04c-.034.04-.067.06-.067.1zM1.9 9.72c0 .017 0 .033.034.033.035 0 .035-.016.035-.033 0-.033 0-.067-.04-.067s-.04.036-.04.07zm-.163.122c0 .015.035.032.052.032.01 0 .03-.018.03-.034 0-.035-.02-.068-.04-.068s-.053.032-.053.066zm-.82.054c-.062 0-.052-.14-.042-.15.244-.06.62-.124.862-.185.244 0 .345-.15.518-.15.456-.152.79-.243 1.125-.61h.122l-.03-.06c.03-.06.274-.12.334-.212.173-.21.426-.495.426-.67 0-.15.213-.23.163-.343 0-.02.142-.242.142-.242l-.02-.08c0-.07.02-.102.02-.162 0-.02-.203-.08-.244-.08-.182 0-.324.06-.487.06-.06 0-.09-.04-.152-.04-.09 0-.182.06-.274.06h-.395l-.06.04-.7.08c-.03 0-.183-.02-.214-.02l-.12.02c-.33 0-.33-.382-.51-.565-.394.122-.952.73-1.37.73 0-.192.195-.294.367-.405l.386-.366c.06-.06.284-.122.304-.203.05-.302.21-.22.282-.343a.46.46 0 0 1 .15-.214c.03-.03.153-.333.184-.364a5.53 5.53 0 0 0 .456-.79c0-.03.15-.216.15-.246.02-.02.03-.08.03-.12l-.06-.03h-.49l-.06.06s-.215.03-.306.03c-.355.062-.416-.21-.528-.466 0-.183.122-.264.305-.264.14 0 .26.06.41.06.05-.06.46.07.46-.223 0-.02-.09-.12-.12-.12v-.93c0-.04-.03-.305-.03-.345 0-.12-.01-.293.03-.344.03-.285-.345-.245-.456-.387.05-.05.11-.1.18-.1.234-.01.245-.082.458-.082.12 0 .274.02.396.06-.03.075.366.065.366.207 0 .12-.09.223-.09.344 0 .02-.03.465-.03.61-.012.1.01.28.12.28.09 0 .06-.06.12-.06.124 0 .154.06.306.06.09 0 .558-.1.558-.16v-.33l.02-.04v-.91c0-.163-.182-.244-.182-.365 0-.132.417-.244.59-.244.1 0 .526.163.607.326 0 .21-.18.16-.302.343-.04.08 0 .324-.1.365 0 .252.04.465.04.71 0 .12-.04.242-.04.323 0 .183.06.345.06.53 0 .08 0 .14-.06.242.04.2.04.42.04.64 0 .07-.05.13-.04.21l.04.12-.04.06c.09.394.12.62.12.91 0 .06-.06.123-.06.153-.02.092 0 .213-.12.274-.07.01-.1.04-.123.122-.04.12-.364.09-.313.09-.04-.01-.183-.155-.193-.246 0-.094.06-.205.06-.276H3.8c0-.427.06-.73.08-1.157a.317.317 0 0 0 .063-.183c-.02-.03-.08-.09-.08-.09-.195 0-.387.03-.59.03-.08 0-.213.01-.213-.03-.06 0-.09.03-.122.06.03.11.184.243.184.355v.04c-.194.253-.336.496-.58.76-.103.132-.184.274-.306.395-.264.02-.06.215-.396.215-.033.03.03.05.06.06 0 .062-.194.235-.275.346-.01.175.03.144.12.144.03 0 .487.05.487.06l.09-.06c.15-.01.365.04.547.04.03 0 .06 0 .122-.04h.547l.06.04c.325-.05.61-.06.923-.06.237-.103.257-.478.328-.65 0-.06.02-.518.123-.518-.02-.06-.02-.06-.02-.183-.04-.09.07-.06.08-.09.02-.082-.02-.113-.02-.184 0-.03.06-.09.08-.123.112 0 .213.032.244.093a.14.14 0 0 1 .09-.03c-.03.02.62.202.62.364 0 .185-.266.094-.246.246 0 .11-.18.536-.18.77 0 .06-.01.182.06.202.163 0 .345 0 .53-.08 0 .07.13-.334.2-.405.06-.153.04-.365.244-.365.05-.05.16.09.18.12.19.103.307.194.307.397 0 .09-.02.15-.02.25.08.11.194.12.316.12h.13c.04 0 .224.02.244.02.12.04.283-.06.61-.06.18 0 .16-.242.343-.242.14 0 .374.306.455.53.01 0 .03-.01.04-.01.09 0 .143.202.143.253 0 .08-.09.243-.182.243h-.68c-.08 0-.344-.123-.872-.123L7.6 6.9c-.04 0-.163.04-.163.04-.203 0-.365-.06-.507-.06-.1 0-.365 0-.365.12 0 .246.568.814.974 1.067.18.12.36.15.54.24.02 0 .122.09.142.09.112.053.284.02.345.154.03 0 .09-.03.12-.03s.214.09.275.09c.212 0 .465.097.546.128h.105c.08 0 .152.02.142.12 0 .03-.09.124-.124.124-.242.09-.293.213-.455.335-.223.152-.274.304-.55.304-.16 0-.364-.03-.425-.06-.456-.284-.75-.527-1.136-.852-.02-.03-.266-.212-.306-.242l-.38-.394c-.14-.12-.162-.344-.162-.496-.07-.12.07-.67-.243-.67H5.49c-.142 0-.223.305-.223.467-.193.253-.284.578-.446.85-.17.295-.24.245-.36.366-.07.152-.28.273-.36.304-.11.03-.415.367-.68.367-.03 0-.273.15-.303.15-.425.124-.66.235-1.003.367-.092 0-.284.02-.335.09-.255 0-.457.124-.59.094l-.02-.06H.92z" fill="#FFF" mask="url(#d)"/></g></g></svg>