<svg width="24" height="12" xmlns="http://www.w3.org/2000/svg"><g fill="none" fill-rule="evenodd"><path d="M18 .05A5.975 5.975 0 0124 6a5.906 5.906 0 01-1.748 4.2l.83 1.43a.248.248 0 01-.218.372l-.063-.01-2.73-.725a.247.247 0 01-.185-.247l.008-.057.733-2.71a.25.25 0 01.414-.114l.043.053.646 1.108A4.918 4.918 0 0023 6a4.98 4.98 0 00-5-4.958V.05zM13.136 0l.064.01 2.73.725c.112.029.19.131.186.247l-.008.057-.733 2.707a.25.25 0 01-.414.115l-.042-.055L14.27 2.7A4.913 4.913 0 0013 6a4.98 4.98 0 005 4.958v.992A5.975 5.975 0 0112 6a5.906 5.906 0 011.75-4.2L12.917.372a.248.248 0 01.22-.372h-.001z" fill="#FFF"/><path d="M6 .05A5.975 5.975 0 0112 6a5.906 5.906 0 01-1.748 4.2l.83 1.43a.248.248 0 01-.218.372l-.063-.01-2.73-.725a.247.247 0 01-.185-.247l.008-.057.733-2.71a.25.25 0 01.414-.114l.043.053L9.73 9.3A4.918 4.918 0 0011 6a4.98 4.98 0 00-5-4.958V.05zM1.136 0L1.2.01l2.73.725c.112.029.19.131.186.247l-.008.057-.733 2.707a.25.25 0 01-.414.115l-.042-.055L2.27 2.7A4.913 4.913 0 001 6a4.98 4.98 0 005 4.958v.992A5.975 5.975 0 010 6a5.906 5.906 0 011.75-4.2L.917.372A.248.248 0 011.137 0h-.001z" fill="#333"/></g></svg>
