<svg xmlns="http://www.w3.org/2000/svg" width="150" height="30" viewBox="0 0 150 30"><path fill="#4EB969" d="M30.004 15.002c0 8.285-6.717 15.002-15.002 15.002S0 23.287 0 15.002 6.717 0 15.002 0s15.002 6.717 15.002 15.002"/><path fill="#FFF" d="M11.342 16.002a.92.92 0 0 1-.36-.3v-3.5c0-.06.3-.21.36-.21h7.341c.06 0 .23.15.23.21v3.39c0 .09-.19.36-.28.36-.891.05-5.631.05-7.291.05zm10.751 5.001h-3.35c-.09 0-.09-.21-.09-.21l1-3.3s0-.06.09-.06h1c.21 0 .21-.3.21-.51v-6.001c0-.15-.06-.35-.24-.35l.06-.06H9.201c-.21 0-.21.24-.21.45v6.001c0 .15 0 .5.24.5h8.151c.09 0 .09.06.09.06l-1.2 3.35a.201.201 0 0 1-.15.09h-2.48c-.09 0-.09-.15-.09-.15l-1-2.49a.42.42 0 0 0-.35-.32h-1.65c-.15 0-.15.21-.15.21l.69 2.6s0 .21-.09.21h-3.2c-.21 0-.3.06-.3.21v.77c0 .15.09.54.36.54h14.282c.24 0 .36-.36.36-.54v-.81c-.021-.19-.171-.19-.411-.19zm0-13.482H8.091c-.21 0-.54.09-.54.36v.81c0 .24.36.36.51.36h14.052a.36.36 0 0 0 .389-.329l.001-.031v-.84a.38.38 0 0 0-.398-.361l-.012.001v.03z"/><path fill="#F9686F" d="M60.004 15c0 8.284-6.716 15-15 15s-15-6.716-15-15 6.716-15 15-15 15 6.716 15 15"/><path fill="#FFF" d="M49.714 14.72c-.26-.08-.45-.14-.31-.49a2 2 0 0 0 0-1.88c-.61-.88-2.27-.83-4.18 0 0 0-.6.27-.45-.21a2.19 2.19 0 0 0-.21-2.21c-1-1-3.79 0-6.15 2.42-1.76 1.75-2.79 3.65-2.79 5.28 0 3.13 4 5 7.87 5 5.1 0 8.49-3 8.49-5.37a2.861 2.861 0 0 0-2.27-2.54zm-6.21 6.83c-3.1.31-5.78-1.11-6-3.17-.22-2.06 2.15-4 5.26-4.29s5.78 1.11 6 3.16c.22 2.05-2.15 3.99-5.26 4.3zM53.104 9a4.93 4.93 0 0 0-4.72-1.54.73.73 0 0 0 .3 1.42 3.512 3.512 0 0 1 3.32 1.12 3.59 3.59 0 0 1 .74 3.49.73.73 0 0 0 .46.91.72.72 0 0 0 .9-.47 5 5 0 0 0-1-4.93z"/><path fill="#FFF" d="M50.934 13.5a.62.62 0 0 0 .78-.4 2.461 2.461 0 0 0-.5-2.39 2.4 2.4 0 0 0-2.31-.71.624.624 0 1 0 .26 1.22 1.18 1.18 0 0 1 1.13.37c.286.318.381.763.25 1.17a.63.63 0 0 0 .39.74zm-7.12 2.18a3.37 3.37 0 0 0-3.81 1.67 2.33 2.33 0 0 0 1.47 3.32 3.34 3.34 0 0 0 4-1.71 2.34 2.34 0 0 0-1.66-3.28zm-1.13 3.42a1.17 1.17 0 0 1-1.43.47.84.84 0 0 1-.32-1.25 1.17 1.17 0 0 1 1.4-.48.84.84 0 0 1 .35 1.26z"/><path fill="#5E84C9" d="M90 15c0 8.284-6.716 15-15 15s-15-6.716-15-15S66.716 0 75 0s15 6.716 15 15"/><path fill="#FFF" d="M75 7.11a5.68 5.68 0 0 1 4.25 1.57A7.323 7.323 0 0 1 81 13.9c.79 1.08 1.79 3.65 1.59 4.4a.38.38 0 0 1-.21.27.997.997 0 0 1-.37.07 2 2 0 0 1-1.4-.64c-.232.503-.489.993-.77 1.47.437.11.816.382 1.06.76a.78.78 0 0 1 .14.71c-.187.41-.559.707-1 .8a6.74 6.74 0 0 1-2.23.37 5.887 5.887 0 0 1-2.22-.39 1.51 1.51 0 0 0-1.27-.02 5.773 5.773 0 0 1-2.24.43 6.855 6.855 0 0 1-2.08-.37 1.488 1.488 0 0 1-1.05-.85.84.84 0 0 1 .16-.79 1.725 1.725 0 0 1 1-.67h.05c-.15-.23-.63-1.13-.78-1.46a1.918 1.918 0 0 1-1.4.66h-.28a.261.261 0 0 1-.21-.18A8.459 8.459 0 0 1 69 13.93a7.38 7.38 0 0 1 1.7-5.26 5.653 5.653 0 0 1 4.23-1.56"/><path fill="#65B1EF" d="M120 15c0 8.284-6.716 15-15 15s-15-6.716-15-15 6.716-15 15-15 15 6.716 15 15"/><path fill="#FFF" d="M113.66 13l-4.09 3.79.1.79a46.01 46.01 0 0 1-5.88-.25l5.64-4c-3.33-.94-9.07 0-9.3 0 2.194.055 4.383.222 6.56.5L101.1 18c2.86.303 5.746.273 8.6-.09.406-.066.802-.18 1.18-.34a3.41 3.41 0 0 1-1.08.7l.75 4.24a.35.35 0 0 1-.15.36.478.478 0 0 1-.4.05L105 20l-5 2.9a.371.371 0 0 1-.4 0 .35.35 0 0 1-.14-.37l1-5.72L96.38 13a.35.35 0 0 1-.11-.38.36.36 0 0 1 .31-.25l5.59-.64 2.52-5.26a.36.36 0 0 1 .67 0l2.44 5.38 5.63.52a.36.36 0 0 1 .31.24.43.43 0 0 1-.07.38"/><path fill="#3EDA7D" d="M150 15c0 8.284-6.716 15-15 15s-15-6.716-15-15 6.716-15 15-15 15 6.716 15 15"/><path fill="#FFF" d="M144.37 17.64c0-2.36-2.24-4.28-5-4.28s-5 1.92-5 4.28 2.24 4.28 5 4.28a5.62 5.62 0 0 0 2.52-.59l2.22.84-.56-2.17a3.84 3.84 0 0 0 .82-2.36zm-6.25-.51a.75.75 0 1 1 .75-.76.75.75 0 0 1-.73.77h-.01l-.01-.01zm2.5 0a.75.75 0 1 1 .75-.76.75.75 0 0 1-.73.77h-.01l-.01-.01z"/><path fill="#FFF" d="M139 12.62a6.62 6.62 0 0 0-6.61-4.8c-3.73 0-6.75 2.7-6.75 6a5.78 5.78 0 0 0 2.36 4.63l-.1 2 2.43-.8a7.523 7.523 0 0 0 3.83.09 4.479 4.479 0 0 1-.51-2.06C133.62 15 136 12.8 139 12.62zm-4.61-1.78a.76.76 0 1 1-.75.77v-.01c0-.41.33-.745.74-.75l.01-.01zm-4 1.51a.76.76 0 1 1 .75-.77v.02a.75.75 0 0 1-.74.76h-.03l.02-.01z"/></svg>
